<?xml version="1.0" encoding="UTF-8" standalone="no"?>
<!DOCTYPE svg PUBLIC "-//W3C//DTD SVG 1.1//EN"
 "http://www.w3.org/Graphics/SVG/1.1/DTD/svg11.dtd">
<!-- Generated by graphviz version 9.0.0 (20230911.1827)
 -->
<!-- Title: Service Desk &#45; Tablet Video Pages: 1 -->
<svg width="548pt" height="260pt"
 viewBox="0.00 0.00 548.12 260.00" xmlns="http://www.w3.org/2000/svg" xmlns:xlink="http://www.w3.org/1999/xlink">
<g id="graph0" class="graph" transform="scale(1 1) rotate(0) translate(4 256)">
<title>Service Desk &#45; Tablet Video</title>
<polygon fill="white" stroke="none" points="-4,4 -4,-256 544.12,-256 544.12,4 -4,4"/>
<!-- AreaPage -->
<g id="node1" class="node">
<title>AreaPage</title>
<polygon fill="none" stroke="black" points="338.38,-252 250.62,-252 250.62,-216 338.38,-216 338.38,-252"/>
<text text-anchor="start" x="262.62" y="-228.95" font-family="Helvetica,sans-Serif" font-size="14.00">AreaPage</text>
</g>
<!-- TicketdetailsPage -->
<g id="node2" class="node">
<title>TicketdetailsPage</title>
<polygon fill="none" stroke="black" points="363.12,-180 225.88,-180 225.88,-144 363.12,-144 363.12,-180"/>
<text text-anchor="start" x="237.88" y="-156.95" font-family="Helvetica,sans-Serif" font-size="14.00">TicketdetailsPage</text>
</g>
<!-- AreaPage&#45;&gt;TicketdetailsPage -->
<g id="edge1" class="edge">
<title>AreaPage&#45;&gt;TicketdetailsPage</title>
<path fill="none" stroke="black" d="M288.58,-215.7C287.83,-208.41 287.59,-199.73 287.85,-191.54"/>
<polygon fill="black" stroke="black" points="291.34,-191.82 288.51,-181.61 284.36,-191.36 291.34,-191.82"/>
</g>
<!-- TicketdetailsPage&#45;&gt;AreaPage -->
<g id="edge2" class="edge">
<title>TicketdetailsPage&#45;&gt;AreaPage</title>
<path fill="none" stroke="black" d="M300.4,-180.1C301.16,-187.37 301.41,-196.04 301.15,-204.24"/>
<polygon fill="black" stroke="black" points="297.66,-203.98 300.51,-214.19 304.65,-204.43 297.66,-203.98"/>
</g>
<!-- DashboardPage -->
<g id="node3" class="node">
<title>DashboardPage</title>
<polygon fill="none" stroke="black" points="143.25,-108 15.75,-108 15.75,-72 143.25,-72 143.25,-108"/>
<text text-anchor="start" x="27.75" y="-84.95" font-family="Helvetica,sans-Serif" font-size="14.00">DashboardPage</text>
</g>
<!-- TicketdetailsPage&#45;&gt;DashboardPage -->
<g id="edge3" class="edge">
<title>TicketdetailsPage&#45;&gt;DashboardPage</title>
<path fill="none" stroke="black" d="M234.87,-143.52C204.54,-133.96 167.87,-122.05 137.74,-112"/>
<polygon fill="black" stroke="black" points="138.99,-108.72 128.4,-108.86 136.77,-115.36 138.99,-108.72"/>
</g>
<!-- CasestatusPage -->
<g id="node4" class="node">
<title>CasestatusPage</title>
<polygon fill="none" stroke="black" points="290,-108 161,-108 161,-72 290,-72 290,-108"/>
<text text-anchor="start" x="173" y="-84.95" font-family="Helvetica,sans-Serif" font-size="14.00">CasestatusPage</text>
</g>
<!-- TicketdetailsPage&#45;&gt;CasestatusPage -->
<g id="edge4" class="edge">
<title>TicketdetailsPage&#45;&gt;CasestatusPage</title>
<path fill="none" stroke="black" d="M271.53,-143.7C262.57,-135.47 252.53,-125.48 244.04,-116.42"/>
<polygon fill="black" stroke="black" points="246.8,-114.26 237.48,-109.22 241.63,-118.97 246.8,-114.26"/>
</g>
<!-- AssigntoPage -->
<g id="node5" class="node">
<title>AssigntoPage</title>
<polygon fill="none" stroke="black" points="421.12,-108 307.88,-108 307.88,-72 421.12,-72 421.12,-108"/>
<text text-anchor="start" x="319.88" y="-84.95" font-family="Helvetica,sans-Serif" font-size="14.00">AssigntoPage</text>
</g>
<!-- TicketdetailsPage&#45;&gt;AssigntoPage -->
<g id="edge5" class="edge">
<title>TicketdetailsPage&#45;&gt;AssigntoPage</title>
<path fill="none" stroke="black" d="M305.89,-143.7C313.36,-135.37 323.31,-125.22 332.93,-116.07"/>
<polygon fill="black" stroke="black" points="335.18,-118.75 340.12,-109.38 330.42,-113.62 335.18,-118.75"/>
</g>
<!-- PriorityPage -->
<g id="node6" class="node">
<title>PriorityPage</title>
<polygon fill="none" stroke="black" points="540.12,-108 438.88,-108 438.88,-72 540.12,-72 540.12,-108"/>
<text text-anchor="start" x="450.88" y="-84.95" font-family="Helvetica,sans-Serif" font-size="14.00">PriorityPage</text>
</g>
<!-- TicketdetailsPage&#45;&gt;PriorityPage -->
<g id="edge6" class="edge">
<title>TicketdetailsPage&#45;&gt;PriorityPage</title>
<path fill="none" stroke="black" d="M337.27,-143.52C363.89,-133.6 398.49,-121.15 428.01,-110.87"/>
<polygon fill="black" stroke="black" points="428.9,-114.26 437.2,-107.68 426.6,-107.65 428.9,-114.26"/>
</g>
<!-- DashboardPage&#45;&gt;TicketdetailsPage -->
<g id="edge7" class="edge">
<title>DashboardPage&#45;&gt;TicketdetailsPage</title>
<path fill="none" stroke="black" d="M138.81,-108.38C169.09,-117.92 205.76,-129.83 235.94,-139.9"/>
<polygon fill="black" stroke="black" points="234.71,-143.18 245.3,-143.04 236.93,-136.54 234.71,-143.18"/>
</g>
<!-- CreatenewticketPage -->
<g id="node7" class="node">
<title>CreatenewticketPage</title>
<polygon fill="none" stroke="black" points="159,-36 0,-36 0,0 159,0 159,-36"/>
<text text-anchor="start" x="12" y="-12.95" font-family="Helvetica,sans-Serif" font-size="14.00">CreatenewticketPage</text>
</g>
<!-- DashboardPage&#45;&gt;CreatenewticketPage -->
<g id="edge8" class="edge">
<title>DashboardPage&#45;&gt;CreatenewticketPage</title>
<path fill="none" stroke="black" d="M73.58,-71.7C72.83,-64.41 72.59,-55.73 72.85,-47.54"/>
<polygon fill="black" stroke="black" points="76.34,-47.82 73.51,-37.61 69.36,-47.36 76.34,-47.82"/>
</g>
<!-- CasestatusPage&#45;&gt;TicketdetailsPage -->
<g id="edge9" class="edge">
<title>CasestatusPage&#45;&gt;TicketdetailsPage</title>
<path fill="none" stroke="black" d="M248.52,-108.35C257.41,-116.51 267.38,-126.42 275.82,-135.42"/>
<polygon fill="black" stroke="black" points="273.02,-137.55 282.34,-142.58 278.19,-132.83 273.02,-137.55"/>
</g>
<!-- AssigntoPage&#45;&gt;TicketdetailsPage -->
<g id="edge10" class="edge">
<title>AssigntoPage&#45;&gt;TicketdetailsPage</title>
<path fill="none" stroke="black" d="M353.29,-108.1C345.8,-116.47 335.78,-126.69 326.08,-135.92"/>
<polygon fill="black" stroke="black" points="323.77,-133.29 318.83,-142.67 328.53,-138.42 323.77,-133.29"/>
</g>
<!-- PriorityPage&#45;&gt;TicketdetailsPage -->
<g id="edge11" class="edge">
<title>PriorityPage&#45;&gt;TicketdetailsPage</title>
<path fill="none" stroke="black" d="M447,-108.38C421.52,-117.88 388.64,-129.72 359.92,-139.76"/>
<polygon fill="black" stroke="black" points="358.86,-136.43 350.57,-143.02 361.16,-143.04 358.86,-136.43"/>
</g>
<!-- CreatenewticketPage&#45;&gt;DashboardPage -->
<g id="edge12" class="edge">
<title>CreatenewticketPage&#45;&gt;DashboardPage</title>
<path fill="none" stroke="black" d="M85.4,-36.1C86.16,-43.37 86.41,-52.04 86.15,-60.24"/>
<polygon fill="black" stroke="black" points="82.66,-59.98 85.51,-70.19 89.65,-60.43 82.66,-59.98"/>
</g>
</g>
</svg>
